#!OML:ASF F:\VICON\USERDATA\INSTALL\rory3\rory3.ASF
:FULLY-SPECIFIED
:DEGREES
1087
root -0.0202329 15.6594 -6.63657 -22.1433 -19.6856 -0.00731322
lowerback 24.437 1.41806 -0.150579
upperback 13.9952 1.55477 1.0595
thorax 1.8262 0.617819 0.881489
lowerneck -7.39183 -0.788144 -5.59776
upperneck -6.12279 -0.455504 8.59735
head -0.627403 -0.141316 3.79419
rclavicle -1.2921e-015 3.18055e-015
rhumerus -48.0578 52.1209 -92.2545
rradius 95.4269
rwrist -1.13062
rhand -53.5483 18.3469
rfingers 7.12502
rthumb -25.9908 -9.89569
lclavicle -1.2921e-015 3.18055e-015
lhumerus -40.3372 -50.7384 89.9064
lradius 81.9895
lwrist -16.1476
lhand -58.2041 34.3337
lfingers 7.12502
lthumb -30.4406 61.8403
rfemur -29.625 1.47266 8.71294
rtibia 56.8149
rfoot -3.54445 -14.4166
rtoes 0.0386781
lfemur -64.3883 47.7284 -8.35923
ltibia 142.694
lfoot -7.01902 -11.9864
ltoes 1.65218
1088
root -0.0203723 15.658 -6.63774 -22.1501 -19.7038 -0.0329821
lowerback 24.4507 1.42066 -0.126459
upperback 14.0046 1.56262 1.07362
thorax 1.83046 0.622401 0.881219
lowerneck -7.43565 -0.837475 -5.56767
upperneck -6.16194 -0.524518 8.4375
head -0.627757 -0.175774 3.73024
rclavicle -2.57426e-014 -1.72943e-014
rhumerus -48.0303 52.1472 -92.2367
rradius 95.4385
rwrist -1.11236
rhand -53.6379 18.2816
rfingers 7.12502
rthumb -26.0766 -9.94838
lclavicle -2.57426e-014 -1.72943e-014
lhumerus -40.2859 -50.7644 89.8719
lradius 81.9738
lwrist -16.1088
lhand -58.2278 34.4645
lfingers 7.12502
lthumb -30.4632 61.9669
rfemur -29.6061 1.50389 8.74419
rtibia 56.8101
rfoot -3.66175 -14.4854
rtoes 0.642313
lfemur -64.3691 47.7558 -8.29351
ltibia 142.695
lfoot -7.03483 -12.0265
ltoes 1.43671
1089
root -0.0205179 15.6572 -6.63841 -22.2161 -19.6993 0.045697
lowerback 24.5005 1.43968 -0.202136
upperback 14.0082 1.5712 1.05654
thorax 1.8094 0.622663 0.903013
lowerneck -7.51489 -0.871967 -5.53304
upperneck -6.11246 -0.575676 8.3315
head -0.59452 -0.199883 3.68443
rclavicle -5.88403e-014 1.39149e-014
rhumerus -48.0231 52.1845 -92.2515
rradius 95.4301
rwrist -1.11647
rhand -53.8155 18.4352
rfingers 7.12502
rthumb -26.2467 -9.76956
lclavicle -5.88403e-014 1.39149e-014
lhumerus -40.2745 -50.7756 89.8545
lradius 81.9671
lwrist -16.0942
lhand -58.2197 34.609
lfingers 7.12502
lthumb -30.4554 62.1129
rfemur -29.5665 1.52738 8.65831
rtibia 56.8147
rfoot -3.78479 -14.5191
rtoes 1.35329
lfemur -64.2887 47.7325 -8.34414
ltibia 142.676
lfoot -7.05822 -11.9864
ltoes 1.25842
1090
root -0.0208063 15.6568 -6.63816 -22.2508 -19.7147 0.103369
lowerback 24.5211 1.44685 -0.236489
upperback 14.0059 1.5728 1.03081
thorax 1.79693 0.62242 0.894021
lowerneck -7.63326 -0.909602 -5.59337
upperneck -5.98615 -0.623524 8.34987
head -0.529037 -0.219003 3.70085
rclavicle -1.95803e-014 1.76918e-014
rhumerus -48.0433 52.2138 -92.2991
rradius 95.4151
rwrist -1.13612
rhand -53.8656 18.5137
rfingers 7.12502
rthumb -26.2947 -9.68391
lclavicle -1.95803e-014 1.76918e-014
lhumerus -40.2945 -50.7806 89.8438
lradius 81.9664
lwrist -16.0787
lhand -58.2077 34.8173
lfingers 7.12502
lthumb -30.444 62.3232
rfemur -29.5605 1.55031 8.60577
rtibia 56.8203
rfoot -3.73336 -14.4733
rtoes 1.11411
lfemur -64.2371 47.7774 -8.36376
ltibia 142.684
lfoot -7.10846 -11.9682
ltoes 1.28076
1091
root -0.0209621 15.6563 -6.63834 -22.2323 -19.778 0.0647922
lowerback 24.5145 1.44064 -0.185218
upperback 14.0187 1.57406 1.03975
thorax 1.81548 0.625303 0.874626
lowerneck -7.78077 -0.957814 -5.7086
upperneck -5.85741 -0.67993 8.39072
head -0.456625 -0.240763 3.73581
rclavicle -3.84648e-014 2.08724e-014
rhumerus -47.9962 52.2578 -92.2742
rradius 95.4026
rwrist -1.1532
rhand -53.7932 18.3885
rfingers 7.12502
rthumb -26.2254 -9.8195
lclavicle -3.84648e-014 2.08724e-014
lhumerus -40.2416 -50.7775 89.8044
lradius 81.9328
lwrist -16.088
lhand -58.2147 35.0057
lfingers 7.12502
lthumb -30.4507 62.5104
rfemur -29.5864 1.58795 8.6793
rtibia 56.8166
rfoot -3.62415 -14.4599
rtoes 0.619742
lfemur -64.2109 47.9252 -8.23708
ltibia 142.712
lfoot -7.14727 -12.0153
ltoes 1.20066
1092
root -0.0207502 15.657 -6.63909 -22.2298 -19.8174 0.0328525
lowerback 24.5306 1.43557 -0.152284
upperback 14.0348 1.57311 1.05194
thorax 1.8267 0.625783 0.86927
lowerneck -7.87018 -0.984728 -5.78637
upperneck -5.81997 -0.70887 8.38653
head -0.426385 -0.251605 3.74866
rclavicle 5.17834e-014 -1.76918e-014
rhumerus -47.946 52.2703 -92.2348
rradius 95.3957
rwrist -1.14804
rhand -53.7116 18.2592
rfingers 7.12502
rthumb -26.1472 -9.96035
lclavicle 5.17834e-014 -1.76918e-014
lhumerus -40.1587 -50.7767 89.7534
lradius 81.8957
lwrist -16.1149
lhand -58.2085 35.1146
lfingers 7.12502
lthumb -30.4448 62.6205
rfemur -29.5904 1.61636 8.73468
rtibia 56.8056
rfoot -3.6202 -14.4962
rtoes 0.706054
lfemur -64.2129 47.9663 -8.16168
ltibia 142.709
lfoot -7.10768 -12.0429
ltoes 1.13236
1093
root -0.0203317 15.659 -6.63927 -22.2789 -19.7907 0.0998458
lowerback 24.5361 1.44443 -0.211161
upperback 14.0446 1.57237 1.03766
thorax 1.83407 0.622354 0.887451
lowerneck -7.85998 -0.986634 -5.84971
upperneck -5.85265 -0.705705 8.37577
head -0.438816 -0.249241 3.75754
rclavicle -2.59414e-014 4.81059e-014
rhumerus -47.9519 52.2552 -92.2414
rradius 95.3965
rwrist -1.14607
rhand -53.6424 18.1203
rfingers 7.12502
rthumb -26.081 -10.109
lclavicle -2.59414e-014 4.81059e-014
lhumerus -40.124 -50.825 89.7335
lradius 81.8841
lwrist -16.1016
lhand -58.1333 35.1505
lfingers 7.12502
lthumb -30.373 62.6696
rfemur -29.5516 1.62106 8.65206
rtibia 56.7968
rfoot -3.70559 -14.4995
rtoes 1.03882
lfemur -64.1772 47.8648 -8.25893
ltibia 142.672
lfoot -7.08818 -12.001
ltoes 1.1592
